<svg width="105" height="21" viewBox="0 0 105 21" fill="none" xmlns="http://www.w3.org/2000/svg">
  <path d="M0 0.5H4.5V14.5C4.5 16.5 3.5 18.5 1.5 19.5L0 20.5V16.5C1.5 15.5 2 14.5 2 13.5V0.5Z" fill="#121212"/>
  <path d="M8 0.5H12.5L17 14.5H17.1L21.5 0.5H26L20 20H14L8 0.5Z" fill="#121212"/>
  <path d="M44 0.5H48.5V20H44V0.5Z" fill="#121212"/>
  <path d="M52 0.5H62C65.5 0.5 68 2.5 68 6C68 8.5 66.5 10.5 64 11L69 20H64.5L60 11.5H56.5V20H52V0.5ZM56.5 8H61C63 8 64 7 64 5.5C64 4 63 3 61 3H56.5V8Z" fill="#121212"/>
  <path d="M28 0.5H33L38 14.5H38.1L43 0.5V20H38.5V8H38.4L34.5 20H31.5L27.5 8H27.4V20H23V0.5H28Z" fill="#121212"/>
  <path d="M72 0.5H76.5L82 20H77.5L76.5 16H72L71 20H66.5L72 0.5ZM73 13H75.5L74.3 8L73 13Z" fill="#121212"/>
  <path d="M96 0.5H100.5L105 14.5V20H100.5L96 6V0.5Z" fill="#121212"/>
  <path d="M84 0.5H88.5V20H84V0.5Z" fill="#121212"/>
  <path d="M90 0.5H94.5V20H90V0.5Z" fill="#121212"/>
  <!-- Red accents -->
  <path d="M1 15.5C2.5 15.5 3.5 16.5 3.5 17.5C3 18.5 2 19 1 18.5L0 17.5L1 15.5Z" fill="#ED1B36"/>
  <path d="M103 0C104 0 105 1 105 2C105 3 104 3.5 103 3L102 2L103 0Z" fill="#ED1B36"/>
</svg>
