<svg preserveAspectRatio="none" width="100%" height="100%" overflow="visible" style="display: block;" viewBox="0 0 103.066 20.9385" fill="none" xmlns="http://www.w3.org/2000/svg">
<g id="JARVIS">
<path id="Vector" d="M95.6108 20.938C94.1159 20.938 92.7763 20.6953 91.592 20.2099C90.4077 19.7246 89.4564 19.0063 88.7381 18.055C88.0391 17.1037 87.6703 15.9583 87.6314 14.6187H92.9316C93.0093 15.3759 93.2714 15.9583 93.7179 16.366C94.1644 16.7543 94.7469 16.9484 95.4652 16.9484C96.203 16.9484 96.7854 16.7834 97.2125 16.4533C97.6396 16.1039 97.8532 15.6282 97.8532 15.0264C97.8532 14.5217 97.6785 14.1042 97.329 13.7742C96.999 13.4442 96.5815 13.1724 96.0768 12.9588C95.5914 12.7453 94.8925 12.5026 93.98 12.2308C92.6598 11.8231 91.5823 11.4154 90.7475 11.0077C89.9126 10.6 89.1943 9.9982 88.5925 9.20222C87.9906 8.40625 87.6897 7.36761 87.6897 6.08628C87.6897 4.18372 88.3789 2.69855 89.7573 1.63078C91.1358 0.543599 92.9316 8.54033e-06 95.1449 8.54033e-06C97.397 8.54033e-06 99.2122 0.543599 100.591 1.63078C101.969 2.69855 102.707 4.19342 102.804 6.11541H97.4164C97.3775 5.45533 97.1349 4.94086 96.6883 4.572C96.2418 4.18372 95.6691 3.98958 94.9701 3.98958C94.3683 3.98958 93.8829 4.15459 93.514 4.48463C93.1452 4.79526 92.9607 5.25148 92.9607 5.85332C92.9607 6.51339 93.2714 7.02786 93.8926 7.39673C94.5139 7.76559 95.4846 8.16358 96.8048 8.59069C98.125 9.03721 99.1928 9.46431 100.008 9.87201C100.843 10.2797 101.561 10.8718 102.163 11.6484C102.765 12.4249 103.066 13.4248 103.066 14.6478C103.066 15.8127 102.765 16.8707 102.163 17.822C101.581 18.7733 100.727 19.5305 99.6005 20.0935C98.4745 20.6565 97.1446 20.938 95.6108 20.938Z" fill="var(--fill-0, black)"/>
<path id="Vector_2" d="M84.6039 0.291737V20.7346H79.624V0.291737H84.6039Z" fill="var(--fill-0, black)"/>
<path id="Vector_3" d="M77.5434 0.291737L70.2921 20.7346H64.06L56.8087 0.291737H62.1089L67.176 15.7258L72.2724 0.291737H77.5434Z" fill="var(--fill-0, black)"/>
<path id="Vector_4" d="M49.7808 20.7346L45.529 13.0176H44.335V20.7346H39.3552V0.291737H47.7132C49.3246 0.291737 50.6933 0.57324 51.8193 1.13624C52.9648 1.69925 53.819 2.47581 54.3821 3.46592C54.9451 4.43662 55.2266 5.5238 55.2266 6.72746C55.2266 8.08644 54.8383 9.29981 54.0617 10.3676C53.3046 11.4353 52.1785 12.1925 50.6836 12.639L55.4013 20.7346H49.7808ZM44.335 9.49395H47.422C48.3344 9.49395 49.0139 9.27069 49.4605 8.82417C49.9264 8.37765 50.1594 7.7467 50.1594 6.93131C50.1594 6.15475 49.9264 5.54321 49.4605 5.09669C49.0139 4.65017 48.3344 4.42691 47.422 4.42691H44.335V9.49395Z" fill="var(--fill-0, black)"/>
<path id="Vector_5" d="M30.6088 17.1236H22.9789L21.7558 20.7346H16.5429L23.9399 0.291737H29.706L37.1029 20.7346H31.8319L30.6088 17.1236ZM29.3274 13.2797L26.7938 5.79559L24.2893 13.2797H29.3274Z" fill="var(--fill-0, black)"/>
<path id="Vector_6" d="M13.862 0.291737V14.2115C13.862 16.3665 13.2505 18.0264 12.0273 19.1912C10.8236 20.3561 9.19282 20.9385 7.13487 20.9385C4.97986 20.9385 3.25197 20.3269 1.95119 19.1039C0.650417 17.8808 3.04802e-05 16.1432 3.04802e-05 13.8912H4.95074C4.95074 14.7454 5.12547 15.3958 5.47493 15.8423C5.82439 16.2694 6.32917 16.483 6.98927 16.483C7.59112 16.483 8.05706 16.2888 8.38711 15.9006C8.71716 15.5123 8.88218 14.9493 8.88218 14.2115V0.291737H13.862Z" fill="var(--fill-0, black)"/>
</g>
</svg>
